<?xml version="1.0" encoding="UTF-8"?>
<!DOCTYPE svg PUBLIC "-//W3C//DTD SVG 1.1//EN" "http://www.w3.org/Graphics/SVG/1.1/DTD/svg11.dtd">
<!-- Creator: CorelDRAW -->
<svg xmlns="http://www.w3.org/2000/svg" xml:space="preserve" width="200px" height="231px" style="shape-rendering:geometricPrecision; text-rendering:geometricPrecision; image-rendering:optimizeQuality; fill-rule:evenodd; clip-rule:evenodd"
viewBox="0 0 49.1311 56.6099"
 xmlns:xlink="http://www.w3.org/1999/xlink">
 <defs>
  <style type="text/css">
   <![CDATA[
    .str0 {stroke:#C2F0FF;stroke-width:0.188398;stroke-linecap:round;stroke-linejoin:round}
    .fil3 {fill:none}
    .fil0 {fill:#1FA8D7}
    .fil1 {fill:#38BEEB}
    .fil2 {fill:#82DCFA}
    .fil4 {fill:#B5EDFF}
   ]]>
  </style>
 </defs>
 <g id="Layer_x0020_1">
  <metadata id="CorelCorpID_0Corel-Layer"/>
  <polygon class="fil0" points="0.094199,42.3869 0.094199,14.1289 24.5655,0 49.0369,14.1289 49.0369,42.3869 24.5655,56.5157 "/>
  <polygon class="fil1" points="24.5655,36.3586 0.094199,22.2296 0.094199,31.6489 24.5655,45.7779 49.0369,31.6489 49.0369,22.2296 "/>
  <polygon class="fil2" points="24.5655,30.8011 0.094199,16.6721 0.094199,22.2296 24.5655,36.3586 49.0369,22.2296 49.0369,16.6721 "/>
  <line class="fil3 str0" x1="24.5655" y1="28.2579" x2="49.0369" y2= "14.1289" />
  <line class="fil3 str0" x1="0.094199" y1="14.1289" x2="24.5655" y2= "28.2579" />
  <line class="fil3 str0" x1="24.5655" y1="28.2579" x2="24.5655" y2= "56.5157" />
  <polygon class="fil4" points="24.5655,28.2579 0.094199,14.1289 0.094199,16.6721 24.5655,30.8011 49.0369,16.6721 49.0369,14.1289 "/>
  <polygon class="fil4" points="24.5655,0 0.094199,14.1289 24.5655,28.2579 49.0369,14.1289 "/>
 </g>
</svg>
