<?xml version="1.0" encoding="UTF-8"?>
<!DOCTYPE svg PUBLIC "-//W3C//DTD SVG 1.1//EN" "http://www.w3.org/Graphics/SVG/1.1/DTD/svg11.dtd">
<!-- Creator: CorelDRAW -->
<svg xmlns="http://www.w3.org/2000/svg" xml:space="preserve" width="700px" height="202px" style="shape-rendering:geometricPrecision; text-rendering:geometricPrecision; image-rendering:optimizeQuality; fill-rule:evenodd; clip-rule:evenodd"
viewBox="0 0 687.466 198.135"
 xmlns:xlink="http://www.w3.org/1999/xlink">
 <defs>
  <style type="text/css">
   <![CDATA[
    .str0 {stroke:#C2F0FF;stroke-width:0.659393;stroke-linecap:round;stroke-linejoin:round}
    .fil5 {fill:none}
    .fil0 {fill:#1FA8D7}
    .fil4 {fill:#333333}
    .fil1 {fill:#38BEEB}
    .fil2 {fill:#82DCFA}
    .fil6 {fill:#B5EDFF}
    .fil3 {fill:#1EA7D6;fill-rule:nonzero}
   ]]>
  </style>
 </defs>
 <g id="Layer_x0020_1">
  <metadata id="CorelCorpID_0Corel-Layer"/>
  <polygon class="fil0" points="0.329696,148.354 0.329696,49.4511 85.9794,0 171.629,49.4511 171.629,148.354 85.9794,197.805 "/>
  <polygon class="fil1" points="85.9794,127.255 0.329696,77.8035 0.329696,110.771 85.9794,160.223 171.629,110.771 171.629,77.8035 "/>
  <polygon class="fil2" points="85.9794,107.804 0.329696,58.3525 0.329696,77.8035 85.9794,127.255 171.629,77.8035 171.629,58.3525 "/>
  <path class="fil3" d="M257.58 34.3239l-9.90883 22.9371c5.35551,-0.384272 10.2411,-2.59496 14.6734,-6.60178 4.44006,-4.02252 8.13887,-9.45728 11.1099,-16.3353l30.9511 0c-3.6147,8.36726 -7.69815,15.2602 -12.2257,20.6954 -4.5365,5.4198 -9.90323,9.91781 -16.0852,13.4947 6.26573,7.13894 6.46347,18.623 0.593603,34.4514l-32.7932 0c6.28703,-16.3663 4.56753,-24.7179 -5.14319,-25.0554l-10.8235 25.0554 -30.3676 0 29.6517 -68.6415 30.3676 0zm50.888 68.6415l-30.3979 0 53.4942 -68.6415 43.3095 0 -5.80931 68.6415 -30.3672 0 1.05264 -11.6067 -22.3068 0 -8.97507 11.6067zm21.5136 -27.804l11.2377 0 1.74268 -17.0407 -12.9804 17.0407zm50.0073 -10.4239l13.1385 -30.4136 60.9957 0 -13.1381 30.4136 -15.2913 0 -16.5132 38.228 -30.3982 0 16.5136 -38.228 -15.307 0zm69.2613 38.228l-30.3982 0 53.4942 -68.6415 43.3095 0 -5.80894 68.6415 -30.3676 0 1.05264 -11.6067 -22.3068 0 -8.97469 11.6067zm21.5132 -27.804l11.2381 0 1.74268 -17.0407 -12.9808 17.0407zm113.863 28.3412l-23.0287 0 -5.40971 -21.6314 -9.11225 21.0942 -30.3672 0 29.6514 -68.6415 21.7398 0 5.96967 23.2133 10.0273 -23.2133 30.4132 0 -29.8835 69.1787zm36.4333 -0.537158l-30.3982 0 53.4942 -68.6415 43.3095 0 -5.80894 68.6415 -30.3676 0 1.05264 -11.6067 -22.3068 0 -8.97469 11.6067zm21.5132 -27.804l11.2381 0 1.74231 -17.0407 -12.9804 17.0407z"/>
  <path class="fil4" d="M493.191 137.071c-82.4484,5.31065 -162.603,5.44261 -260.622,-6.73448 23.3471,37.5271 61.596,32.6396 82.1998,34.2253 54.8959,3.08689 125.926,2.63009 180.669,-1.25486 2.46824,10.9282 6.76663,18.3624 11.0983,18.0398 4.40231,-0.32708 7.58601,-8.57136 8.3467,-20.0296l113.585 -11.622c2.16545,-0.221667 2.85924,-1.40327 2.46749,-3.37172 -1.58718,-7.97626 -2.6529,-13.3314 -4.2397,-21.3065 -0.647057,-3.25024 -1.47504,-3.68198 -4.81686,-3.27603 -36.7727,4.4681 -72.5287,10.3836 -109.134,13.7818 -2.49665,-10.4385 -6.67878,-17.4623 -10.8912,-17.148 -4.22624,0.313997 -7.32883,7.92355 -8.24353,18.6686l-0.41941 0.0276616zm125.815 9.84603l-6.98493 -8.9874 -3.56087 10.2639 -6.85185 -9.01357 -3.69395 10.2897 -6.71766 -9.03675 -3.82852 10.3133 -6.58271 -9.05768 -3.96234 10.3342 -6.44814 -9.07525 -4.09766 10.3514 -6.3132 -9.08983 -4.2326 10.366 -6.17713 -9.10216 -4.36792 10.3787 -6.04182 -9.11151 -4.50436 10.3881 -5.90613 -9.11749 -4.63967 10.3937 -5.77006 -9.12085 -3.26855 7.11651c0.013457,-2.35871 -0.0687802,-4.812 -0.256057,-7.32771 -0.241104,-3.24725 -0.640329,-6.36665 -1.16627,-9.29131l4.20793 6.81111 4.64752 -10.4124 5.79511 9.16085 4.51295 -10.4101 5.92968 9.15449 4.37838 -10.4034 6.06462 9.1459 4.24344 -10.3944 6.19882 9.13281 4.10962 -10.3821 6.33226 9.11824 3.97579 -10.3671 6.46609 9.10104 3.84197 -10.3499 6.59991 9.08086 3.70815 -10.3294 6.73298 9.05693 3.57508 -10.3062 6.86494 9.03077 3.4435 -10.28 7.7602 9.98621 -4.01654 11.9917z"/>
  <line class="fil5 str0" x1="85.9794" y1="98.9026" x2="171.629" y2= "49.4511" />
  <line class="fil5 str0" x1="0.329696" y1="49.4511" x2="85.9794" y2= "98.9026" />
  <line class="fil5 str0" x1="85.9794" y1="98.9026" x2="85.9794" y2= "197.805" />
  <polygon class="fil6" points="85.9794,98.9026 0.329696,49.4511 0.329696,58.3525 85.9794,107.804 171.629,58.3525 171.629,49.4511 "/>
  <polygon class="fil6" points="85.9794,0 0.329696,49.4511 85.9794,98.9026 171.629,49.4511 "/>
 </g>
</svg>
